<svg width="56" height="56" viewBox="0 0 56 56" fill="none" xmlns="http://www.w3.org/2000/svg">
<rect width="56" height="56" rx="10" fill="#4F44E0"/>
<path d="M18.5806 33.002V33.3276C18.6794 32.9656 18.8707 32.6353 19.1356 32.3694C19.5371 31.9631 20.085 31.7352 20.6563 31.7366H27.0203C28.5742 31.7366 30.7943 31.078 33.6063 30.238L33.7506 30.1973C34.7607 29.8939 35.915 30.1641 37.0066 30.6561L37.0064 30.6562C36.4891 28.6465 35.3188 26.8655 33.6792 25.5931C32.0397 24.3206 30.0239 23.6288 27.9488 23.6262C26.3031 23.6249 24.6861 24.0575 23.2609 24.8804C21.8357 25.7033 20.6526 26.8873 19.831 28.3131C19.0093 29.739 18.5779 31.3563 18.5806 33.0019L18.5806 33.002Z" fill="white"/>
<path d="M33.3573 15.8944C33.8432 18.8877 31.8106 21.7081 28.8171 22.194C25.8238 22.6799 23.0035 20.6472 22.5176 17.6538C22.0317 14.6604 24.0644 11.8402 27.0578 11.3542C30.0511 10.8684 32.8714 12.901 33.3573 15.8944Z" fill="white"/>
<path d="M41.1758 33.8418H44.8906V41.8005H41.1758V33.8418Z" fill="white"/>
<path d="M33.8465 30.5489L33.706 30.5934C30.8644 31.4407 28.6222 32.1066 27.0201 32.1066H20.6561C20.1853 32.1116 19.7352 32.3011 19.403 32.6348C19.0707 32.9684 18.8829 33.4192 18.88 33.89C18.8818 34.3575 19.0664 34.8055 19.394 35.1387C19.7217 35.4719 20.1666 35.6638 20.6338 35.6734H20.6634L27.4344 36.3247C29.0291 36.5836 29.9837 37.0388 30.1132 37.579C30.1183 37.622 30.1183 37.6654 30.1132 37.7084C30.1132 38.0118 29.8468 38.2561 29.4546 38.319C29.4242 38.3262 29.3925 38.3262 29.3621 38.319L27.8341 37.7418L24.3339 36.4098L20.8226 36.0731H20.6264C20.216 36.0696 19.8153 35.9485 19.4717 35.7243C19.128 35.5 18.8558 35.1819 18.6876 34.8077C18.6398 34.7048 18.6003 34.5985 18.5692 34.4895C18.531 34.3491 18.5062 34.2054 18.4951 34.0604L14.5065 32.4804C14.2962 32.3949 14.0712 32.3509 13.8442 32.3509C13.3836 32.35 12.9417 32.5324 12.6161 32.8581C12.2905 33.1838 12.1079 33.6257 12.1089 34.0863C12.1115 34.6885 12.4231 35.2473 12.9341 35.5663C16.9042 38.0045 25.7435 42.7924 27.797 43.4103C30.1021 44.0874 39.5186 42.1263 40.8062 41.8526V33.7348C39.6939 32.703 38.4497 31.8235 37.1062 31.1189C36.0072 30.5824 34.838 30.2567 33.8465 30.5491L33.8465 30.5489Z" fill="white"/>
</svg>
