<svg width="56" height="56" viewBox="0 0 56 56" fill="none" xmlns="http://www.w3.org/2000/svg">
<rect width="56" height="56" rx="10" fill="#4F44E0"/>
<path d="M44.8784 28C44.8655 32.4004 43.1404 36.6229 40.0686 39.7734C36.9968 42.924 32.8191 44.7552 28.421 44.8796V46.0919C28.4242 46.2182 28.3801 46.3412 28.2978 46.437C28.2152 46.5327 28.1001 46.5943 27.9747 46.6099C27.8492 46.6255 27.7226 46.5939 27.6191 46.5212L23.2453 43.6675C23.1004 43.5736 23.0128 43.4127 23.0128 43.24C23.0128 43.0672 23.1004 42.9063 23.2453 42.8125L27.6191 39.9587C27.7224 39.8903 27.8471 39.8618 27.9698 39.8788C28.0925 39.8956 28.2048 39.9566 28.2857 40.0503C28.3668 40.1441 28.4107 40.2642 28.4096 40.388V41.5812C31.4099 41.4888 34.2951 40.4053 36.6144 38.5C38.9337 36.5947 40.5569 33.9748 41.2304 31.0498C41.9036 28.1246 41.5892 25.0588 40.336 22.331C39.0827 19.6035 36.9616 17.3679 34.3035 15.973C34.2137 15.9287 34.1548 15.8395 34.1492 15.7394C34.1438 15.6395 34.1925 15.5442 34.2769 15.4904L36.7394 13.8791C36.8862 13.7843 37.0751 13.7843 37.2219 13.8791C39.577 15.4052 41.5118 17.4974 42.8494 19.9642C44.187 22.4311 44.8849 25.194 44.879 28.0003L44.8784 28ZM32.7526 12.3326L28.3788 9.47892C28.2756 9.41051 28.1509 9.38206 28.0282 9.39889C27.9055 9.41584 27.7931 9.47682 27.7122 9.57058C27.6312 9.66434 27.5873 9.78446 27.5884 9.90828V11.1205C23.9892 11.2097 20.5131 12.4473 17.6672 14.6526C14.8215 16.8579 12.7554 19.9153 11.7706 23.3784C10.7858 26.8414 10.9343 30.5284 12.1939 33.9012C13.4536 37.2737 15.7586 40.1554 18.7723 42.125C18.9191 42.2199 19.1081 42.2199 19.2549 42.125L21.7324 40.5139H21.7325C21.8169 40.4599 21.8657 40.3648 21.8602 40.2647C21.8546 40.1648 21.7957 40.0756 21.7059 40.0313C19.0473 38.6386 16.9249 36.4048 15.6696 33.6787C14.4144 30.9525 14.0974 27.8875 14.768 24.9621C15.4385 22.0366 17.059 19.4157 19.3761 17.5084C21.6933 15.6011 24.577 14.5149 27.5765 14.4193V15.6125C27.5733 15.7388 27.6173 15.8619 27.6997 15.9576C27.7822 16.0533 27.8974 16.1149 28.0228 16.1305C28.1482 16.1461 28.2749 16.1146 28.3783 16.0418L32.7521 13.1804C32.8971 13.0866 32.9847 12.9256 32.9847 12.7529C32.9847 12.5803 32.8971 12.4193 32.7521 12.3254L32.7526 12.3326ZM21.5958 20.4304C21.2865 20.4304 20.9897 20.5533 20.7709 20.7721C20.5521 20.9909 20.4292 21.2876 20.4292 21.597V34.403C20.4292 34.7124 20.5521 35.0092 20.7709 35.228C20.9897 35.4468 21.2865 35.5696 21.5958 35.5696H34.4018C34.7112 35.5696 35.008 35.4468 35.2268 35.228C35.4456 35.0092 35.5684 34.7124 35.5684 34.403V21.597C35.5684 21.2877 35.4456 20.9909 35.2268 20.7721C35.008 20.5533 34.7112 20.4304 34.4018 20.4304H29.5606V25.0512H26.5624V20.4304H21.5958Z" fill="white"/>
</svg>
