<svg width="56" height="56" viewBox="0 0 56 56" fill="none" xmlns="http://www.w3.org/2000/svg">
<rect width="56" height="56" rx="10" fill="#4F44E0"/>
<g clip-path="url(#clip0_6326_53595)">
<path d="M42.61 15.6449H45.9997V13.3963C45.9997 12.4862 45.8096 11.7122 45.4712 11.1836C45.1854 10.7387 44.7872 10.4751 44.312 10.4751C44.2976 10.4751 44.2831 10.4751 44.2687 10.473C44.263 10.473 44.2565 10.4751 44.2486 10.4751C43.7956 10.4974 43.4141 10.771 43.134 11.1972C42.7971 11.7077 42.6098 12.4241 42.6098 13.2118L42.61 15.6449ZM14.4286 39.32H37.6645C37.9503 39.32 38.1829 39.5526 38.1829 39.8384V42.6061C38.1829 43.5162 38.373 44.2902 38.7136 44.8187C38.9973 45.2637 39.3954 45.5273 39.8706 45.5273C40.3421 45.5273 40.7403 45.2637 41.0275 44.8396C41.3768 44.3291 41.5726 43.5968 41.5726 42.7904L41.5727 16.1633V13.2128C41.5727 12.2271 41.8218 11.3084 42.2668 10.6309C42.3014 10.5776 42.3359 10.5251 42.3748 10.4761L17.0128 10.4732V10.4753C16.2986 10.4753 15.6535 10.7655 15.1862 11.2327C14.7168 11.6999 14.4289 12.3472 14.4289 13.0593L14.4286 39.32ZM10 40.3567V42.606C10 43.5161 10.1901 44.2901 10.5306 44.8187C10.8165 45.2636 11.2125 45.5272 11.6899 45.5272H37.9426C37.908 45.4782 37.8748 45.4292 37.8425 45.3781C37.3954 44.6819 37.1463 43.7149 37.1463 42.6068V40.3575L13.9104 40.3574H10.0002L10 40.3567ZM23.9023 18.3859H19.0876V23.4229H23.9023V18.3859ZM18.5701 17.3492H24.4216C24.7096 17.3492 24.94 17.5818 24.94 17.8676V23.9414C24.94 24.2294 24.7096 24.4598 24.4216 24.4598H18.5701C18.2843 24.4598 18.0517 24.2294 18.0517 23.9414V17.8676C18.0517 17.5823 18.2843 17.3492 18.5701 17.3492ZM23.9023 28.1642H19.0876V33.2012H23.9023V28.1642ZM18.5701 27.1273H24.4216C24.7096 27.1273 24.94 27.3599 24.94 27.6457V33.7195C24.94 34.0076 24.7096 34.238 24.4216 34.238H18.5701C18.2843 34.238 18.0517 34.0076 18.0517 33.7195V27.6457C18.0517 27.3599 18.2843 27.1273 18.5701 27.1273ZM27.9394 22.9234C27.6536 22.9234 27.421 22.693 27.421 22.405C27.421 22.1191 27.6536 21.8865 27.9394 21.8865H36.5686C36.8567 21.8865 37.0892 22.1191 37.0892 22.405C37.0892 22.693 36.8565 22.9234 36.5686 22.9234H27.9394ZM27.9394 19.9231C27.6536 19.9231 27.421 19.6927 27.421 19.4047C27.421 19.1188 27.6536 18.8862 27.9394 18.8862H36.5686C36.8567 18.8862 37.0892 19.1188 37.0892 19.4047C37.0892 19.6927 36.8565 19.9231 36.5686 19.9231H27.9394ZM27.9394 32.7016C27.6536 32.7016 27.421 32.469 27.421 32.1832C27.421 31.8974 27.6536 31.6647 27.9394 31.6647H36.5686C36.8567 31.6647 37.0892 31.8974 37.0892 32.1832C37.0892 32.469 36.8565 32.7016 36.5686 32.7016H27.9394ZM27.9394 29.7013C27.6536 29.7013 27.421 29.4687 27.421 29.1829C27.421 28.897 27.6536 28.6644 27.9394 28.6644H36.5686C36.8567 28.6644 37.0892 28.897 37.0892 29.1829C37.0892 29.4687 36.8565 29.7013 36.5686 29.7013H27.9394Z" fill="white"/>
</g>
<defs>
<clipPath id="clip0_6326_53595">
<rect width="36" height="36" fill="white" transform="translate(10 10)"/>
</clipPath>
</defs>
</svg>
