<svg width="56" height="56" viewBox="0 0 56 56" fill="none" xmlns="http://www.w3.org/2000/svg">
<rect width="56" height="56" rx="10" fill="#4F44E0"/>
<path d="M33.2822 21.464C33.2822 21.084 33.0542 20.7419 32.7122 20.5519L22.0342 15.7259C21.7682 15.6119 21.4642 15.6119 21.2362 15.7259L10.5202 20.5519C10.1782 20.7039 9.9502 21.046 9.9502 21.464V36.436C9.9502 36.7019 10.1782 36.93 10.4443 36.93H13.4463C13.7122 36.93 13.9404 36.702 13.9404 36.436L13.9402 24.9599C13.9402 24.4279 14.3962 23.972 14.9282 23.972H33.3202V21.464L33.2822 21.464Z" fill="white"/>
<path d="M31.4584 30.318H28.8364C28.7223 30.318 28.6084 30.432 28.6084 30.546V33.168C28.6084 33.282 28.7224 33.396 28.8364 33.396H31.4584C31.5725 33.396 31.6864 33.2819 31.6864 33.168V30.546C31.6484 30.3941 31.5725 30.318 31.4584 30.318Z" fill="white"/>
<path d="M31.6483 26.3659C31.6483 26.2519 31.5342 26.1379 31.4203 26.1379H28.7983C28.6842 26.1379 28.5703 26.252 28.5703 26.3659V28.9879C28.5703 29.102 28.6844 29.2159 28.7983 29.2159H31.4203C31.5344 29.2159 31.6483 29.1019 31.6483 28.9879V26.3659Z" fill="white"/>
<path d="M27.2782 30.318H24.6562C24.5421 30.318 24.4282 30.432 24.4282 30.546V33.168C24.4282 33.282 24.5423 33.396 24.6562 33.396H27.2782C27.3923 33.396 27.5062 33.2819 27.5062 33.168V30.546C27.5062 30.3941 27.3923 30.318 27.2782 30.318Z" fill="white"/>
<path d="M27.5062 26.3659C27.5062 26.2519 27.3922 26.1379 27.2782 26.1379H24.6562C24.5421 26.1379 24.4282 26.252 24.4282 26.3659V28.9879C24.4282 29.102 24.5423 29.2159 24.6562 29.2159H27.2782C27.3923 29.2159 27.5062 29.1019 27.5062 28.9879V26.3659Z" fill="white"/>
<path d="M23.0981 30.318H20.476C20.362 30.318 20.248 30.432 20.248 30.546V33.168C20.248 33.282 20.3621 33.396 20.476 33.396H23.0981C23.2121 33.396 23.326 33.2819 23.326 33.168V30.546C23.326 30.3941 23.2121 30.318 23.0981 30.318Z" fill="white"/>
<path d="M23.326 26.3659C23.326 26.2519 23.212 26.1379 23.0981 26.1379H20.476C20.362 26.1379 20.248 26.252 20.248 26.3659V28.9879C20.248 29.102 20.3621 29.2159 20.476 29.2159H23.0981C23.2121 29.2159 23.326 29.1019 23.326 28.9879V26.3659Z" fill="white"/>
<path d="M18.956 30.318H16.3339C16.2199 30.318 16.106 30.432 16.106 30.546V33.168C16.106 33.282 16.22 33.396 16.3339 33.396H18.956C19.07 33.396 19.1839 33.2819 19.1839 33.168V30.546C19.146 30.3941 19.07 30.318 18.956 30.318Z" fill="white"/>
<path d="M19.1463 26.3659C19.1463 26.2519 19.0323 26.1379 18.9184 26.1379H16.2963C16.1823 26.1379 16.0684 26.252 16.0684 26.3659V28.9879C16.0684 29.102 16.1824 29.2159 16.2963 29.2159H18.9184C19.0324 29.2159 19.1463 29.1019 19.1463 28.9879V26.3659Z" fill="white"/>
<path d="M44.9102 31.762L41.5662 31.306L39.6282 27.924C39.1343 27.05 38.1462 26.48 37.1203 26.48H33.4343C33.0922 26.48 32.7883 26.784 32.7883 27.1259V33.8139C32.7883 34.156 32.4843 34.4599 32.1424 34.4599L16.7524 34.46C16.4104 34.46 16.1064 34.764 16.1064 35.1059V37.0819C16.1064 37.4239 16.4105 37.7278 16.7524 37.7278H18.2344C18.3485 39.2098 19.6024 40.3878 21.1224 40.3878C22.6424 40.3878 23.8964 39.2098 24.0104 37.7278H38.1084C38.2224 39.2098 39.4763 40.3878 40.9963 40.3878C42.5163 40.3878 43.7704 39.2098 43.8843 37.7278H44.7963C45.5184 37.7278 46.0884 37.1578 46.0884 36.4358V33.0538C46.0504 32.4079 45.5563 31.8379 44.9104 31.762L44.9102 31.762ZM21.0842 39.02C20.2483 39.02 19.5642 38.3359 19.5642 37.5C19.5642 36.664 20.2483 35.98 21.0842 35.98C21.9201 35.98 22.6042 36.664 22.6042 37.5C22.6422 38.3359 21.9581 39.02 21.0842 39.02ZM34.8782 31.23V28.304H37.1202C37.5002 28.304 37.8802 28.532 38.0702 28.874L39.4382 31.2681L34.8782 31.268V31.23ZM40.9962 39.02C40.1603 39.02 39.4762 38.3359 39.4762 37.5C39.4762 36.664 40.1603 35.98 40.9962 35.98C41.8321 35.98 42.5162 36.664 42.5162 37.5C42.5162 38.3359 41.8323 39.02 40.9962 39.02Z" fill="white"/>
</svg>
