<svg width="56" height="56" viewBox="0 0 56 56" fill="none" xmlns="http://www.w3.org/2000/svg">
<rect width="56" height="56" rx="10" fill="#4F44E0"/>
<path d="M38.9648 24.9099V37.2299L18.0348 37.2301V24.9101C17.2998 24.98 16.4947 24.9101 15.7598 24.63V42.69C15.7598 43.4599 16.3898 44.125 17.1947 44.125H39.8047C40.5747 44.125 41.2397 43.4949 41.2397 42.69L41.2398 24.665C40.5048 24.91 39.7348 24.98 38.9648 24.91L38.9648 24.9099Z" fill="white"/>
<path d="M42.7799 18.155L41.6599 15.4249C41.275 14.48 40.9949 13.4999 40.7849 12.5199C40.6099 11.5749 39.8049 10.9099 38.825 10.9099H18.14C17.195 10.9099 16.355 11.5749 16.18 12.5199C16.005 13.5349 15.69 14.5148 15.305 15.4599L14.1851 18.1899C13.8351 19.03 13.7651 19.9749 14.08 20.8499C14.605 22.3199 15.97 23.2649 17.475 23.2649C18.525 23.2649 19.5051 22.8099 20.1699 22.0399C20.8699 22.8099 21.8149 23.2649 22.8649 23.2649H23.0749C24.0899 23.2649 25.0348 22.8099 25.6999 22.1099C26.3649 22.8449 27.3448 23.2649 28.3249 23.2649H28.6049C29.585 23.2649 30.5649 22.845 31.2299 22.1099C31.8949 22.8099 32.8399 23.2649 33.8549 23.2649H34.1C35.15 23.2649 36.0949 22.8099 36.7949 22.0399C37.46 22.8099 38.4399 23.2649 39.4899 23.2649C40.9949 23.2649 42.3598 22.32 42.8849 20.8499C43.2 19.9399 43.13 18.9949 42.78 18.155L42.7799 18.155Z" fill="white"/>
<path d="M28.5 30.4051C30.04 30.4051 31.3 29.1451 31.3 27.6051C31.3 26.065 30.04 24.8051 28.5 24.8051C26.9599 24.8051 25.7 26.065 25.7 27.6051C25.7 29.145 26.9599 30.4051 28.5 30.4051Z" fill="white"/>
<path d="M23.8799 34.255V35.69H33.1199V34.255C33.1199 32.855 32.2099 31.665 30.9499 31.245C30.2499 31.735 29.4099 32.0149 28.4999 32.0149C27.59 32.0149 26.7499 31.7349 26.0499 31.245C24.7899 31.6649 23.8799 32.855 23.8799 34.255Z" fill="white"/>
</svg>
