<svg width="15" height="15" viewBox="0 0 15 15" fill="none" xmlns="http://www.w3.org/2000/svg">
<path d="M14.3782 11.3928C14.575 11.5887 14.7312 11.8214 14.8379 12.0777C14.9446 12.3341 14.9997 12.6089 15 12.8865C15.0003 13.1642 14.9459 13.4391 14.8398 13.6957C14.7337 13.9523 14.578 14.1854 14.3817 14.3817C14.1854 14.578 13.9523 14.7337 13.6957 14.8398C13.4392 14.9459 13.1642 15.0003 12.8866 15C12.6089 14.9997 12.3341 14.9446 12.0778 14.8379C11.8215 14.7312 11.5887 14.575 11.3928 14.3782L7.49823 10.4835L3.6036 14.3782C3.20721 14.7716 2.67105 14.992 2.11253 14.9909C1.55402 14.9899 1.01868 14.7676 0.623757 14.3726C0.228831 13.9777 0.00650716 13.4424 0.00547503 12.8839C0.0044429 12.3254 0.224787 11.7892 0.618251 11.3928L4.51288 7.49819L0.61828 3.6036C0.222402 3.20772 0 2.67079 0 2.11094C0 1.55108 0.222402 1.01416 0.61828 0.618279C1.01416 0.222402 1.55108 0 2.11094 0C2.6708 0 3.20772 0.222402 3.6036 0.618279L7.49823 4.5129L11.3928 0.61825C11.7891 0.223917 12.3255 0.00283089 12.8845 0.00348987C13.4435 0.00414884 13.9794 0.226499 14.3747 0.621765C14.7699 1.01703 14.9923 1.55294 14.9929 2.11193C14.9936 2.67093 14.7725 3.20736 14.3782 3.60357L10.4835 7.49819L14.3782 11.3928Z" fill="#EA3223"/>
</svg>
