<svg width="56" height="56" viewBox="0 0 56 56" fill="none" xmlns="http://www.w3.org/2000/svg">
<rect width="56" height="56" rx="5" fill="#4F44E0"/>
<path d="M44.8784 27.9999C44.8655 32.4003 43.1404 36.6227 40.0686 39.7733C36.9968 42.9238 32.8191 44.7551 28.421 44.8795V46.0917C28.4242 46.218 28.3801 46.3411 28.2978 46.4368C28.2152 46.5326 28.1001 46.5942 27.9747 46.6098C27.8492 46.6254 27.7226 46.5938 27.6191 46.5211L23.2453 43.6674C23.1004 43.5735 23.0128 43.4125 23.0128 43.2399C23.0128 43.0671 23.1004 42.9061 23.2453 42.8124L27.6191 39.9585C27.7224 39.8901 27.8471 39.8617 27.9698 39.8786C28.0925 39.8955 28.2048 39.9564 28.2857 40.0502C28.3668 40.144 28.4107 40.2641 28.4096 40.3879V41.5811C31.4099 41.4887 34.2951 40.4052 36.6144 38.4999C38.9337 36.5946 40.5569 33.9747 41.2304 31.0497C41.9036 28.1245 41.5892 25.0587 40.336 22.3309C39.0827 19.6033 36.9616 17.3678 34.3035 15.9729C34.2137 15.9286 34.1548 15.8394 34.1492 15.7393C34.1438 15.6394 34.1925 15.5441 34.2769 15.4903L36.7394 13.879C36.8862 13.7841 37.0751 13.7841 37.2219 13.879C39.577 15.4051 41.5118 17.4973 42.8494 19.9641C44.187 22.431 44.8849 25.1938 44.879 28.0001L44.8784 27.9999ZM32.7526 12.3325L28.3788 9.4788C28.2756 9.41039 28.1509 9.38194 28.0282 9.39877C27.9055 9.41571 27.7931 9.4767 27.7122 9.57046C27.6312 9.66422 27.5873 9.78433 27.5884 9.90815V11.1204C23.9892 11.2096 20.5131 12.4472 17.6672 14.6525C14.8215 16.8578 12.7554 19.9152 11.7706 23.3782C10.7858 26.8413 10.9343 30.5283 12.1939 33.9011C13.4536 37.2736 15.7586 40.1552 18.7723 42.1249C18.9191 42.2198 19.1081 42.2198 19.2549 42.1249L21.7324 40.5137H21.7325C21.8169 40.4598 21.8657 40.3647 21.8602 40.2646C21.8546 40.1647 21.7957 40.0755 21.7059 40.0312C19.0473 38.6385 16.9249 36.4047 15.6696 33.6785C14.4144 30.9524 14.0974 27.8873 14.768 24.962C15.4385 22.0365 17.059 19.4156 19.3761 17.5083C21.6933 15.601 24.577 14.5148 27.5765 14.4192V15.6124C27.5733 15.7387 27.6173 15.8617 27.6997 15.9575C27.7822 16.0532 27.8974 16.1148 28.0228 16.1304C28.1482 16.146 28.2749 16.1144 28.3783 16.0417L32.7521 13.1803C32.8971 13.0864 32.9847 12.9255 32.9847 12.7528C32.9847 12.5801 32.8971 12.4192 32.7521 12.3253L32.7526 12.3325ZM21.5958 20.4303C21.2865 20.4303 20.9897 20.5531 20.7709 20.772C20.5521 20.9908 20.4292 21.2875 20.4292 21.5969V34.4029C20.4292 34.7123 20.5521 35.009 20.7709 35.2278C20.9897 35.4467 21.2865 35.5695 21.5958 35.5695H34.4018C34.7112 35.5695 35.008 35.4467 35.2268 35.2278C35.4456 35.009 35.5684 34.7123 35.5684 34.4029V21.5969C35.5684 21.2875 35.4456 20.9908 35.2268 20.772C35.008 20.5531 34.7112 20.4303 34.4018 20.4303H29.5606V25.0511H26.5624V20.4303H21.5958Z" fill="white"/>
</svg>
