<svg xmlns="http://www.w3.org/2000/svg" width="249" height="57" viewBox="0 0 249 57" fill="none">
  <path d="M68.5285 27.2251C72.3157 27.2251 74.8579 28.9403 76.4143 31.0712L76.4143 0.717643C76.4143 0.145915 75.7398 -0.217912 75.2729 0.145915L37.8674 27.5369L38.8532 27.5369C42.7441 27.5369 44.7156 30.0317 44.7156 32.7345C44.7156 34.8654 43.6261 36.4247 42.1216 37.1004C41.8622 37.2043 41.8622 37.5682 42.1216 37.6721C43.8336 38.3998 45.0788 40.2189 45.0788 42.4019C45.0788 45.5204 43.0554 47.9632 39.1644 47.9632L28.529 47.9632C28.3215 47.9632 28.114 47.8073 28.114 47.5474L28.114 34.6575L0.254438 55.0838C-0.212482 55.4996 -0.00496394 56.2273 0.617596 56.2273L75.7398 56.2273C76.103 56.2273 76.3624 55.9674 76.3624 55.6036L76.3624 45.2605C74.3391 47.1316 71.6932 48.3271 68.4766 48.3271C62.4585 48.3271 57.5818 44.169 57.5818 37.7761C57.6337 31.3311 62.5623 27.2251 68.5285 27.2251ZM53.6389 47.5994C53.6389 47.8073 53.4833 47.9632 53.2758 47.9632L49.6961 47.9632C49.4886 47.9632 49.3329 47.8073 49.3329 47.5994L49.3329 27.9007C49.3329 27.6928 49.4886 27.5369 49.6961 27.5369L53.2758 27.5369C53.4833 27.5369 53.6389 27.6928 53.6389 27.9007L53.6389 47.5994Z" fill="#34313F"/>
  <path d="M32.415 36.5239L37.4474 36.5239C38.9 36.5239 39.8339 35.6923 39.8339 34.393C39.8339 33.1456 38.9 32.262 37.4474 32.262L32.2075 32.262C32.1038 32.262 32 32.3659 32 32.4699L32 36.1601C32 36.368 32.2075 36.5239 32.415 36.5239ZM32.415 45.0479L37.6549 45.0479C39.2632 45.0479 40.2489 44.1643 40.2489 42.709C40.2489 41.4096 39.3151 40.3701 37.6549 40.3701L32.415 40.3701C32.2075 40.3701 32 40.526 32 40.7859L32 44.6321C32 44.84 32.2075 45.0479 32.415 45.0479ZM72.6739 34.289C71.6882 32.9896 70.028 31.9501 68.0566 31.9501C64.3212 31.9501 61.6235 34.8088 61.6235 38.6549C61.6235 42.5011 64.3212 45.3598 68.0566 45.3598C69.7686 45.3598 71.3769 44.6321 72.2589 43.9045C72.3108 43.8525 72.3626 43.7485 72.3626 43.6446L72.3626 41.6695C72.3626 41.5136 72.207 41.3577 72.0514 41.3577L67.434 41.3577C67.1746 41.3577 67.019 41.1498 67.019 40.9419L67.019 38.0312C67.019 37.7714 67.2265 37.6154 67.434 37.6154L75.9942 37.6154L75.9942 32.9896L73.2446 34.4969C73.0371 34.5489 72.7777 34.4449 72.6739 34.289ZM79.1589 38.655C79.1589 32.3659 83.6725 28.104 89.483 28.104C93.2703 28.104 95.7086 30.0271 97.1613 32.3659C97.265 32.5219 97.2132 32.7818 97.0056 32.8337L94.671 34.0811C94.5154 34.1851 94.3079 34.1331 94.256 33.9772C93.2703 32.4179 91.4545 31.2745 89.483 31.2745C85.592 31.2745 82.6868 34.341 82.6868 38.655C82.6868 42.9169 85.592 46.0354 89.483 46.0355C91.4545 46.0355 93.2703 44.892 94.256 43.3327C94.3598 43.1768 94.5154 43.1248 94.671 43.2288L97.0056 44.4242C97.2132 44.5282 97.265 44.7361 97.1613 44.944C95.6568 47.2829 93.2184 49.2579 89.483 49.2579C83.6725 49.2059 79.1589 44.892 79.1589 38.655ZM99.1846 38.655C99.1846 33.5614 102.09 29.6113 106.448 28.4678C113.867 26.4927 120.663 33.4574 119.055 41.2018C118.069 45.9835 114.282 49.2579 109.249 49.2579C103.335 49.2059 99.1846 44.7361 99.1846 38.655ZM115.734 38.655C115.734 34.445 113.14 31.2745 109.197 31.2745C105.203 31.2745 102.661 34.445 102.661 38.655C102.661 42.865 105.203 46.0355 109.197 46.0355C113.192 46.0355 115.734 42.813 115.734 38.655ZM140.429 48.5823L140.429 33.0416L134.255 48.6862C134.255 48.7382 134.152 48.7902 134.1 48.7902L132.803 48.7902C132.751 48.7902 132.647 48.7382 132.647 48.6862L126.422 33.0416L126.422 48.5823C126.422 48.7382 126.318 48.8421 126.162 48.8421L123.049 48.8421C122.894 48.8421 122.79 48.7382 122.79 48.5823L122.79 28.6237C122.79 28.4678 122.894 28.3639 123.049 28.3639L127.511 28.3639C127.719 28.3639 127.874 28.4678 127.978 28.6757L133.425 42.7091L138.821 28.6757C138.873 28.4678 139.08 28.3639 139.288 28.3639L143.75 28.3639C143.905 28.3639 144.009 28.4678 144.009 28.6237L144.009 48.5823C144.009 48.7382 143.905 48.8421 143.75 48.8421L140.637 48.8421C140.585 48.8421 140.429 48.7382 140.429 48.5823ZM175.708 48.4783L175.708 28.7797C175.708 28.5718 175.863 28.4159 176.071 28.4159L189.3 28.4159C189.508 28.4159 189.663 28.5718 189.663 28.7797L189.663 31.1706C189.663 31.3785 189.508 31.5344 189.3 31.5344L179.65 31.5344C179.443 31.5344 179.287 31.6903 179.287 31.8982L179.287 36.4201C179.287 36.628 179.443 36.7839 179.65 36.7839L189.093 36.7839C189.3 36.7839 189.456 36.9398 189.456 37.1477L189.456 39.5386C189.456 39.7465 189.3 39.9024 189.093 39.9024L179.65 39.9024C179.443 39.9024 179.287 40.0583 179.287 40.2662L179.287 45.2039C179.287 45.4118 179.443 45.5677 179.65 45.5677L189.3 45.5677C189.508 45.5677 189.663 45.7236 189.663 45.9315L189.663 48.3224C189.663 48.5303 189.508 48.6862 189.3 48.6862L176.071 48.6862C175.863 48.8422 175.708 48.6862 175.708 48.4783ZM206.265 48.6343L201.959 41.3577C201.907 41.2538 201.751 41.2018 201.648 41.2018L198.639 41.2018C198.431 41.2018 198.275 41.3577 198.275 41.5656L198.275 48.4783C198.275 48.6862 198.12 48.8422 197.912 48.8422L195.111 48.8422C194.903 48.8422 194.748 48.6862 194.748 48.4783L194.748 28.7797C194.748 28.5718 194.903 28.4159 195.111 28.4159L203.723 28.4159C207.769 28.4159 210.415 31.0146 210.415 34.8088C210.415 38.1872 208.34 40.1103 206.057 40.682C205.798 40.734 205.694 40.9939 205.798 41.2538C206.628 42.6051 209.222 46.7632 210.208 48.2704C210.363 48.5303 210.208 48.8422 209.896 48.8422L206.628 48.8422C206.472 48.8422 206.369 48.7902 206.265 48.6343ZM206.732 34.7569C206.732 32.7818 205.279 31.5344 203.256 31.5344L198.69 31.5344C198.483 31.5344 198.327 31.6903 198.327 31.8982L198.327 37.6675C198.327 37.8754 198.483 38.0313 198.69 38.0313L203.256 38.0313C205.279 38.0313 206.732 36.7839 206.732 34.7569ZM234.591 48.4783L234.591 28.7797C234.591 28.5718 234.747 28.4159 234.955 28.4159L248.236 28.4159C248.443 28.4159 248.599 28.5718 248.599 28.7797L248.599 31.2226C248.599 31.4305 248.443 31.5864 248.236 31.5864L238.534 31.5864C238.327 31.5864 238.171 31.7423 238.171 31.9502L238.171 36.524C238.171 36.7319 238.327 36.8879 238.534 36.8879L247.976 36.8879C248.184 36.8879 248.34 37.0438 248.34 37.2517L248.34 39.6945C248.34 39.9024 248.184 40.0584 247.976 40.0584L238.534 40.0584C238.327 40.0584 238.171 40.2143 238.171 40.4222L238.171 45.4118C238.171 45.6197 238.327 45.7756 238.534 45.7756L248.236 45.7756C248.443 45.7756 248.599 45.9316 248.599 46.1395L248.599 48.5823C248.599 48.7902 248.443 48.9461 248.236 48.9461L234.955 48.9461C234.747 48.8422 234.591 48.6863 234.591 48.4783ZM213.009 38.5511C213.009 32.2621 217.523 28.0001 223.333 28.0001C227.121 28.0001 229.559 29.9232 231.012 32.2621C231.115 32.418 231.064 32.6779 230.856 32.7298L228.521 33.9772C228.366 34.0812 228.158 34.0292 228.106 33.8733C227.121 32.314 225.305 31.1706 223.333 31.1706C219.442 31.1706 216.537 34.2371 216.537 38.5511C216.537 42.813 219.442 45.9316 223.333 45.9316C225.305 45.9316 227.121 44.7881 228.106 43.2288C228.21 43.0729 228.366 43.0209 228.521 43.1249L230.856 44.3203C231.064 44.4243 231.115 44.6322 231.012 44.8401C229.507 47.179 227.069 49.154 223.333 49.154C217.523 49.102 213.009 44.8401 213.009 38.5511ZM166.888 48.5823L166.888 33.0417L160.714 48.6862C160.714 48.7382 160.611 48.7902 160.559 48.7902L159.262 48.7902C159.21 48.7902 159.106 48.7382 159.106 48.6862L152.88 33.0417L152.88 48.5823C152.88 48.7382 152.777 48.8421 152.621 48.8421L149.508 48.8421C149.353 48.8421 149.249 48.7382 149.249 48.5823L149.249 28.6238C149.249 28.4678 149.353 28.3639 149.508 28.3639L153.97 28.3639C154.177 28.3639 154.333 28.4678 154.437 28.6757L159.884 42.7091L165.28 28.6757C165.332 28.4678 165.539 28.3639 165.747 28.3639L170.208 28.3639C170.364 28.3639 170.468 28.4678 170.468 28.6238L170.468 48.5823C170.468 48.7382 170.364 48.8421 170.208 48.8421L167.096 48.8421C166.992 48.8421 166.888 48.7382 166.888 48.5823Z" fill="#34313F"/>
</svg>