<svg width="125" height="20" viewBox="0 0 125 20" fill="none" xmlns="http://www.w3.org/2000/svg">
<path d="M0.392967 19V1.54545H5.09751V8.19318H5.16569C5.33615 7.75 5.58615 7.34375 5.91569 6.97443C6.24524 6.59943 6.65433 6.30114 7.14297 6.07954C7.6316 5.85227 8.19979 5.73864 8.84751 5.73864C9.71115 5.73864 10.5322 5.96875 11.3106 6.42898C12.0947 6.8892 12.731 7.61364 13.2197 8.60227C13.714 9.59091 13.9611 10.875 13.9611 12.4545C13.9611 13.9659 13.7254 15.2187 13.2538 16.2131C12.7879 17.2074 12.1629 17.9489 11.3788 18.4375C10.6004 18.9261 9.74524 19.1705 8.81342 19.1705C8.19979 19.1705 7.65149 19.071 7.16854 18.8722C6.69126 18.6676 6.28217 18.392 5.94126 18.0455C5.60604 17.6932 5.34751 17.2955 5.16569 16.8523H5.06342V19H0.392967ZM4.99524 12.4545C4.99524 13.0909 5.07763 13.642 5.2424 14.108C5.41285 14.5682 5.65149 14.9261 5.95831 15.1818C6.27081 15.4318 6.64297 15.5568 7.07479 15.5568C7.5066 15.5568 7.87308 15.4347 8.17422 15.1903C8.48104 14.9403 8.71399 14.5852 8.87308 14.125C9.03785 13.6591 9.12024 13.1023 9.12024 12.4545C9.12024 11.8068 9.03785 11.2528 8.87308 10.7926C8.71399 10.3267 8.48104 9.97159 8.17422 9.72727C7.87308 9.47727 7.5066 9.35227 7.07479 9.35227C6.64297 9.35227 6.27081 9.47727 5.95831 9.72727C5.65149 9.97159 5.41285 10.3267 5.2424 10.7926C5.07763 11.2528 4.99524 11.8068 4.99524 12.4545ZM19.1944 1.54545V19H14.4899V1.54545H19.1944ZM28.6401 13.2727V5.90909H33.3446V19H28.8787V16.5114H28.7424C28.4583 17.3466 27.9611 18 27.2509 18.4716C26.5407 18.9375 25.6969 19.1705 24.7196 19.1705C23.8049 19.1705 23.0037 18.9602 22.3162 18.5398C21.6344 18.1193 21.1032 17.5398 20.7225 16.8011C20.3475 16.0625 20.1571 15.2159 20.1515 14.2614V5.90909H24.856V13.2727C24.8617 13.9205 25.0265 14.429 25.3503 14.7983C25.6799 15.1676 26.1401 15.3523 26.731 15.3523C27.1231 15.3523 27.4611 15.2699 27.7452 15.1051C28.035 14.9347 28.2566 14.696 28.41 14.3892C28.5691 14.0767 28.6458 13.7045 28.6401 13.2727ZM40.5701 19.2386C39.1724 19.2386 37.9679 18.9716 36.9565 18.4375C35.9508 17.8977 35.1752 17.125 34.6298 16.1193C34.09 15.108 33.8201 13.8977 33.8201 12.4886C33.8201 11.1364 34.0929 9.95455 34.6383 8.94318C35.1838 7.93182 35.9536 7.14489 36.948 6.58239C37.9423 6.01989 39.1156 5.73864 40.4679 5.73864C41.4565 5.73864 42.3514 5.89205 43.1525 6.19886C43.9536 6.50568 44.6383 6.9517 45.2065 7.53693C45.7747 8.11648 46.2122 8.82102 46.519 9.65057C46.8258 10.4801 46.9792 11.4148 46.9792 12.4545V13.5455H35.286V10.9545H42.6497C42.644 10.5795 42.5474 10.25 42.3599 9.96591C42.1781 9.67614 41.9309 9.4517 41.6184 9.29261C41.3116 9.12784 40.9622 9.04545 40.5701 9.04545C40.1894 9.04545 39.84 9.12784 39.5218 9.29261C39.2036 9.4517 38.948 9.6733 38.7548 9.95739C38.5673 10.2415 38.4679 10.5739 38.4565 10.9545V13.75C38.4565 14.1705 38.5446 14.5455 38.7207 14.875C38.8968 15.2045 39.1497 15.4631 39.4792 15.6506C39.8088 15.8381 40.2065 15.9318 40.6724 15.9318C40.9963 15.9318 41.2917 15.8864 41.5588 15.7955C41.8315 15.7045 42.0644 15.5739 42.2576 15.4034C42.4508 15.2273 42.5929 15.017 42.6838 14.7727H46.9792C46.8315 15.6818 46.4821 16.4716 45.9309 17.142C45.3798 17.8068 44.6497 18.3239 43.7406 18.6932C42.8372 19.0568 41.7804 19.2386 40.5701 19.2386ZM54.7258 19.2386C53.3053 19.2386 52.0894 18.9574 51.0781 18.3949C50.0667 17.8267 49.2911 17.0369 48.7513 16.0256C48.2116 15.0085 47.9417 13.8295 47.9417 12.4886C47.9417 11.1477 48.2116 9.97159 48.7513 8.96023C49.2911 7.94318 50.0667 7.15341 51.0781 6.59091C52.0894 6.02273 53.3053 5.73864 54.7258 5.73864C56.0099 5.73864 57.1207 5.97159 58.0582 6.4375C59.0013 6.89773 59.7315 7.55114 60.2485 8.39773C60.7656 9.23864 61.0269 10.2273 61.0326 11.3636H56.669C56.6065 10.6761 56.4076 10.1534 56.0724 9.79545C55.7428 9.43182 55.3167 9.25 54.794 9.25C54.3849 9.25 54.0269 9.36932 53.7201 9.60795C53.4133 9.84091 53.1746 10.196 53.0042 10.6733C52.8337 11.1449 52.7485 11.7386 52.7485 12.4545C52.7485 13.1705 52.8337 13.767 53.0042 14.2443C53.1746 14.7159 53.4133 15.071 53.7201 15.3097C54.0269 15.5426 54.3849 15.6591 54.794 15.6591C55.1406 15.6591 55.4474 15.5795 55.7144 15.4205C55.9815 15.2557 56.1974 15.017 56.3621 14.7045C56.5326 14.3864 56.6349 14 56.669 13.5455H61.0326C61.0156 14.6989 60.7513 15.7045 60.24 16.5625C59.7286 17.4148 59.0042 18.0739 58.0667 18.5398C57.1349 19.0057 56.0212 19.2386 54.7258 19.2386ZM68.8005 19.2386C67.38 19.2386 66.1641 18.9574 65.1527 18.3949C64.1414 17.8267 63.3658 17.0369 62.826 16.0256C62.2863 15.0085 62.0164 13.8295 62.0164 12.4886C62.0164 11.1477 62.2863 9.97159 62.826 8.96023C63.3658 7.94318 64.1414 7.15341 65.1527 6.59091C66.1641 6.02273 67.38 5.73864 68.8005 5.73864C70.2209 5.73864 71.4368 6.02273 72.4482 6.59091C73.4596 7.15341 74.2351 7.94318 74.7749 8.96023C75.3147 9.97159 75.5846 11.1477 75.5846 12.4886C75.5846 13.8295 75.3147 15.0085 74.7749 16.0256C74.2351 17.0369 73.4596 17.8267 72.4482 18.3949C71.4368 18.9574 70.2209 19.2386 68.8005 19.2386ZM68.8346 15.7614C69.2323 15.7614 69.576 15.6278 69.8658 15.3608C70.1556 15.0937 70.38 14.7131 70.5391 14.2188C70.6982 13.7244 70.7777 13.1364 70.7777 12.4545C70.7777 11.767 70.6982 11.179 70.5391 10.6903C70.38 10.196 70.1556 9.81534 69.8658 9.5483C69.576 9.28125 69.2323 9.14773 68.8346 9.14773C68.4141 9.14773 68.0533 9.28125 67.7522 9.5483C67.451 9.81534 67.2209 10.196 67.0618 10.6903C66.9027 11.179 66.8232 11.767 66.8232 12.4545C66.8232 13.1364 66.9027 13.7244 67.0618 14.2188C67.2209 14.7131 67.451 15.0937 67.7522 15.3608C68.0533 15.6278 68.4141 15.7614 68.8346 15.7614ZM77.0136 19V5.90909H81.4796V8.39773H81.6159C81.8886 7.57955 82.3546 6.93182 83.0136 6.45454C83.6727 5.97727 84.4568 5.73864 85.3659 5.73864C86.2864 5.73864 87.079 5.98295 87.7438 6.47159C88.4085 6.95455 88.8091 7.59659 88.9455 8.39773H89.0818C89.3034 7.59659 89.775 6.95455 90.4966 6.47159C91.2182 5.98295 92.0648 5.73864 93.0364 5.73864C94.2921 5.73864 95.3091 6.14205 96.0875 6.94886C96.8716 7.75568 97.2636 8.82955 97.2636 10.1705V19H92.5591V11.3636C92.5591 10.7898 92.4142 10.3409 92.1244 10.017C91.8347 9.6875 91.4455 9.52273 90.9568 9.52273C90.4739 9.52273 90.0904 9.6875 89.8063 10.017C89.5279 10.3409 89.3886 10.7898 89.3886 11.3636V19H84.8886V11.3636C84.8886 10.7898 84.7438 10.3409 84.454 10.017C84.1642 9.6875 83.775 9.52273 83.2864 9.52273C82.9625 9.52273 82.6841 9.59659 82.4511 9.74432C82.2182 9.89205 82.0364 10.1051 81.9057 10.3835C81.7807 10.6562 81.7182 10.983 81.7182 11.3636V19H77.0136ZM101.661 19.2727C101.002 19.2727 100.436 19.0426 99.9648 18.5824C99.4989 18.1165 99.2687 17.5511 99.2744 16.8864C99.2687 16.2386 99.4989 15.6847 99.9648 15.2244C100.436 14.7642 101.002 14.5341 101.661 14.5341C102.286 14.5341 102.837 14.7642 103.314 15.2244C103.797 15.6847 104.041 16.2386 104.047 16.8864C104.041 17.3295 103.925 17.733 103.698 18.0966C103.476 18.4545 103.186 18.7415 102.828 18.9574C102.47 19.1676 102.081 19.2727 101.661 19.2727ZM109.772 19.2045C108.936 19.2045 108.198 19.0682 107.556 18.7955C106.919 18.517 106.419 18.0966 106.056 17.5341C105.692 16.9716 105.51 16.2557 105.51 15.3864C105.51 14.6705 105.632 14.0597 105.877 13.554C106.121 13.0426 106.462 12.625 106.9 12.3011C107.337 11.9773 107.846 11.7301 108.425 11.5597C109.01 11.3892 109.641 11.2784 110.317 11.2273C111.05 11.1705 111.638 11.1023 112.081 11.0227C112.53 10.9375 112.854 10.821 113.053 10.6733C113.252 10.5199 113.351 10.3182 113.351 10.0682V10.0341C113.351 9.69318 113.221 9.43182 112.959 9.25C112.698 9.06818 112.363 8.97727 111.954 8.97727C111.505 8.97727 111.138 9.0767 110.854 9.27557C110.576 9.46875 110.408 9.76705 110.351 10.1705H106.022C106.079 9.375 106.331 8.64205 106.78 7.97159C107.235 7.29545 107.897 6.75568 108.766 6.35227C109.635 5.94318 110.721 5.73864 112.022 5.73864C112.959 5.73864 113.8 5.84943 114.544 6.07102C115.289 6.28693 115.922 6.59091 116.445 6.98295C116.968 7.36932 117.365 7.82386 117.638 8.34659C117.917 8.86364 118.056 9.42614 118.056 10.0341V19H113.658V17.1591H113.556C113.294 17.6477 112.976 18.0426 112.601 18.3438C112.232 18.6449 111.809 18.8636 111.331 19C110.86 19.1364 110.34 19.2045 109.772 19.2045ZM111.306 16.2386C111.664 16.2386 111.999 16.1648 112.311 16.017C112.63 15.8693 112.888 15.6562 113.087 15.3778C113.286 15.0994 113.385 14.7614 113.385 14.3636V13.2727C113.26 13.3239 113.127 13.3722 112.985 13.4176C112.848 13.4631 112.701 13.5057 112.542 13.5455C112.388 13.5852 112.223 13.6222 112.047 13.6562C111.877 13.6903 111.698 13.7216 111.51 13.75C111.147 13.8068 110.848 13.9006 110.615 14.0312C110.388 14.1562 110.218 14.3125 110.104 14.5C109.996 14.6818 109.942 14.8864 109.942 15.1136C109.942 15.4773 110.07 15.7557 110.326 15.9489C110.581 16.142 110.908 16.2386 111.306 16.2386ZM119.824 19V5.90909H124.528V19H119.824ZM122.176 4.54545C121.54 4.54545 120.994 4.33523 120.54 3.91477C120.085 3.49432 119.858 2.98864 119.858 2.39773C119.858 1.80682 120.085 1.30114 120.54 0.880681C120.994 0.460227 121.54 0.25 122.176 0.25C122.818 0.25 123.363 0.460227 123.812 0.880681C124.267 1.30114 124.494 1.80682 124.494 2.39773C124.494 2.98864 124.267 3.49432 123.812 3.91477C123.363 4.33523 122.818 4.54545 122.176 4.54545Z" fill="white"/>
</svg>
