<svg width="19" height="19" viewBox="0 0 19 19" fill="none" xmlns="http://www.w3.org/2000/svg">
<path d="M6.875 16.5H4.25C3.32174 16.5 2.4315 16.1313 1.77513 15.4749C1.11875 14.8185 0.75 13.9283 0.75 13V5.125C0.75 4.19674 1.11875 3.3065 1.77513 2.65013C2.4315 1.99375 3.32174 1.625 4.25 1.625H13.875C14.8033 1.625 15.6935 1.99375 16.3499 2.65013C17.0063 3.3065 17.375 4.19674 17.375 5.125V7.75M6 0.75V2.5M12.125 0.75V2.5M0.75 6H17.375M15.1875 12.6876L13.875 14.0001" stroke="white" stroke-width="1.33333" stroke-linecap="round" stroke-linejoin="round"/>
<path d="M13.875 18.25C16.2912 18.25 18.25 16.2912 18.25 13.875C18.25 11.4588 16.2912 9.5 13.875 9.5C11.4588 9.5 9.5 11.4588 9.5 13.875C9.5 16.2912 11.4588 18.25 13.875 18.25Z" stroke="white" stroke-width="1.33333" stroke-linecap="round" stroke-linejoin="round"/>
</svg>
