<svg width="129" height="26" viewBox="0 0 129 26" fill="none" xmlns="http://www.w3.org/2000/svg">
<path d="M25.7622 19.2499V8.60645H29.8844V18.1686C29.8844 18.8331 30.0477 19.4413 30.3744 19.9932C30.701 20.5338 31.1346 20.9674 31.6752 21.2941C32.2271 21.6094 32.8297 21.7671 33.4829 21.7671C34.1587 21.7671 34.7669 21.6094 35.3075 21.2941C35.8481 20.9674 36.2817 20.5338 36.6084 19.9932C36.935 19.4413 37.0983 18.8331 37.0983 18.1686V8.60645H41.2205L41.2374 25.5008H37.1152L37.0983 23.9634C36.5126 24.5716 35.82 25.0559 35.0203 25.4163C34.2206 25.7654 33.3646 25.94 32.4524 25.94C31.2247 25.94 30.104 25.6415 29.0904 25.0446C28.0767 24.4364 27.2658 23.6311 26.6576 22.6287C26.0607 21.6151 25.7622 20.4888 25.7622 19.2499Z" fill="white"/>
<path d="M51.2787 25.457C49.7244 25.457 48.3053 25.0572 47.0213 24.2575C45.7486 23.4578 44.7293 22.3822 43.9635 21.0307C43.2088 19.6791 42.8315 18.1868 42.8315 16.5537C42.8315 15.326 43.0512 14.1772 43.4904 13.1073C43.9297 12.026 44.5322 11.0799 45.2981 10.269C46.0753 9.44682 46.9763 8.80483 48.0012 8.34306C49.0261 7.88128 50.1186 7.65039 51.2787 7.65039C52.5965 7.65039 53.8016 7.93196 54.8941 8.49511C55.9978 9.04699 56.9327 9.80723 57.6985 10.7758C58.4644 11.7444 59.0219 12.8482 59.3711 14.0871C59.7202 15.326 59.7991 16.6213 59.6076 17.9728H47.2579C47.4155 18.6035 47.6746 19.1723 48.035 19.6791C48.3954 20.1747 48.8515 20.5745 49.4034 20.8786C49.9553 21.1715 50.5804 21.3235 51.2787 21.3348C51.9995 21.346 52.6528 21.1771 53.2384 20.828C53.8354 20.4675 54.3309 19.9832 54.7251 19.375L58.9318 20.3549C58.2448 21.8529 57.2199 23.0805 55.8571 24.0379C54.4942 24.984 52.9681 25.457 51.2787 25.457ZM47.1227 14.8812H55.4347C55.3108 14.2054 55.0461 13.5972 54.6407 13.0566C54.2465 12.5047 53.7565 12.0654 53.1709 11.7388C52.5852 11.4122 51.9545 11.2489 51.2787 11.2489C50.6029 11.2489 49.9778 11.4122 49.4034 11.7388C48.829 12.0542 48.3391 12.4878 47.9336 13.0397C47.5394 13.5803 47.2691 14.1941 47.1227 14.8812Z" fill="white"/>
<path d="M72.8485 19.9326L76.5652 21.943C75.7881 23.0017 74.8139 23.852 73.6425 24.494C72.4712 25.136 71.1928 25.457 69.8075 25.457C68.2532 25.457 66.8341 25.0572 65.5501 24.2575C64.2774 23.4578 63.2581 22.3879 62.4923 21.0476C61.7377 19.696 61.3604 18.2037 61.3604 16.5706C61.3604 15.3317 61.58 14.1772 62.0192 13.1073C62.4585 12.026 63.061 11.0799 63.8269 10.269C64.6041 9.44682 65.5051 8.80483 66.53 8.34306C67.5549 7.88128 68.6474 7.65039 69.8075 7.65039C71.1928 7.65039 72.4712 7.97138 73.6425 8.61336C74.8139 9.25535 75.7881 10.117 76.5652 11.1982L72.8485 13.1917C72.4543 12.7412 71.9869 12.3921 71.4463 12.1443C70.9169 11.8965 70.3706 11.7726 69.8075 11.7726C68.9966 11.7726 68.2645 11.9979 67.6112 12.4484C66.958 12.8876 66.4399 13.4733 66.057 14.2054C65.674 14.9262 65.4826 15.7146 65.4826 16.5706C65.4826 17.4153 65.674 18.2037 66.057 18.9358C66.4399 19.6566 66.958 20.2367 67.6112 20.6759C68.2645 21.1152 68.9966 21.3348 69.8075 21.3348C70.3932 21.3348 70.9507 21.2109 71.48 20.9631C72.0094 20.7041 72.4655 20.3605 72.8485 19.9326Z" fill="white"/>
<path d="M86.6058 25.457C85.0516 25.457 83.6324 25.0572 82.3485 24.2575C81.0758 23.4578 80.0565 22.3879 79.2906 21.0476C78.536 19.696 78.1587 18.2037 78.1587 16.5706C78.1587 15.3317 78.3783 14.1772 78.8176 13.1073C79.2568 12.026 79.8594 11.0799 80.6253 10.269C81.4024 9.44682 82.3034 8.80483 83.3283 8.34306C84.3533 7.88128 85.4458 7.65039 86.6058 7.65039C88.1601 7.65039 89.5736 8.05022 90.8463 8.84989C92.1303 9.64955 93.1496 10.7252 93.9042 12.0767C94.6701 13.4282 95.053 14.9262 95.053 16.5706C95.053 17.7982 94.8334 18.9471 94.3941 20.017C93.9549 21.087 93.3467 22.0331 92.5695 22.8553C91.8037 23.6662 90.9083 24.3025 89.8833 24.7643C88.8697 25.2261 87.7772 25.457 86.6058 25.457ZM86.6058 21.3348C87.428 21.3348 88.1658 21.1152 88.819 20.6759C89.4722 20.2367 89.9847 19.6566 90.3564 18.9358C90.7393 18.215 90.9308 17.4266 90.9308 16.5706C90.9308 15.6921 90.7337 14.8924 90.3395 14.1716C89.9565 13.4395 89.4328 12.8595 88.7683 12.4315C88.1151 11.9922 87.3942 11.7726 86.6058 11.7726C85.7949 11.7726 85.0628 11.9922 84.4096 12.4315C83.7563 12.8707 83.2382 13.4564 82.8553 14.1885C82.4724 14.9206 82.2809 15.7146 82.2809 16.5706C82.2809 17.4604 82.478 18.2656 82.8722 18.9865C83.2664 19.7073 83.7901 20.2817 84.4434 20.7097C85.1079 21.1264 85.8287 21.3348 86.6058 21.3348Z" fill="white"/>
<path d="M96.6465 25.3366V8.44228H100.769V9.94587C101.343 9.33768 102.03 8.859 102.83 8.50986C103.629 8.14944 104.491 7.96924 105.415 7.96924C106.586 7.96924 107.662 8.24518 108.641 8.79706C109.633 9.34894 110.421 10.0867 111.007 11.0102C111.604 10.0867 112.392 9.34894 113.372 8.79706C114.352 8.24518 115.427 7.96924 116.599 7.96924C117.838 7.96924 118.958 8.27334 119.961 8.88153C120.974 9.47846 121.78 10.2838 122.377 11.2974C122.985 12.2998 123.289 13.4205 123.289 14.6594V25.3366H119.167V15.7575C119.167 15.1043 119.003 14.5073 118.677 13.9667C118.361 13.4148 117.933 12.9756 117.393 12.649C116.863 12.3111 116.266 12.1421 115.602 12.1421C114.937 12.1421 114.335 12.3054 113.794 12.6321C113.265 12.9474 112.837 13.3754 112.51 13.916C112.184 14.4567 112.02 15.0705 112.02 15.7575V25.3366H107.898V15.7575C107.898 15.0705 107.74 14.4567 107.425 13.916C107.11 13.3754 106.682 12.9474 106.141 12.6321C105.6 12.3054 104.998 12.1421 104.333 12.1421C103.68 12.1421 103.083 12.3111 102.543 12.649C102.002 12.9756 101.568 13.4148 101.242 13.9667C100.926 14.5073 100.769 15.1043 100.769 15.7575V25.3366H96.6465Z" fill="white"/>
<path d="M8.98777 7.97411C10.6322 7.97411 12.1301 8.37395 13.4817 9.17361C14.8332 9.97327 15.9088 11.0489 16.7085 12.4004C17.5081 13.7407 17.908 15.2274 17.908 16.8605C17.908 18.0882 17.6771 19.2426 17.2153 20.3239C16.7535 21.4051 16.1115 22.3568 15.2894 23.179C14.4784 23.9899 13.5323 24.6263 12.4511 25.088C11.3811 25.5498 10.2267 25.7807 8.98777 25.7807C7.92906 25.7807 6.98861 25.5442 6.16642 25.0712C5.3555 24.5869 4.67409 23.9618 4.12221 23.1959V25.3415H0V0H4.12221V10.5589C4.67409 9.79307 5.3555 9.17361 6.16642 8.70057C6.98861 8.21627 7.92906 7.97411 8.98777 7.97411ZM8.93709 21.7937C9.8156 21.7937 10.6096 21.574 11.3192 21.1348C12.04 20.6843 12.6144 20.0873 13.0424 19.344C13.4704 18.6006 13.6844 17.7728 13.6844 16.8605C13.6844 15.9595 13.4704 15.1373 13.0424 14.394C12.6144 13.6393 12.04 13.0424 11.3192 12.6032C10.5984 12.1639 9.80433 11.9443 8.93709 11.9443C8.08111 11.9443 7.31524 12.1695 6.63946 12.62C5.96369 13.0593 5.43434 13.6562 5.0514 14.4108C4.66846 15.1542 4.47699 15.9708 4.47699 16.8605C4.47699 17.7728 4.66846 18.6063 5.0514 19.3609C5.43434 20.1042 5.96369 20.6955 6.63946 21.1348C7.31524 21.574 8.08111 21.7937 8.93709 21.7937Z" fill="white"/>
<path d="M19.4443 25.5008V0H23.5882V25.5008H19.4443Z" fill="white"/>
<path d="M126.996 25.551C126.445 25.551 125.973 25.3601 125.58 24.9783C125.199 24.586 125.008 24.1088 125.008 23.5468C125.008 23.006 125.199 22.5395 125.58 22.1471C125.973 21.7548 126.445 21.5586 126.996 21.5586C127.547 21.5586 128.019 21.7548 128.412 22.1471C128.804 22.5395 129 23.006 129 23.5468C129 24.1088 128.804 24.586 128.412 24.9783C128.019 25.3601 127.547 25.551 126.996 25.551Z" fill="white"/>
</svg>
