<svg width="17" height="16" viewBox="0 0 17 16" fill="none" xmlns="http://www.w3.org/2000/svg">
<path d="M7.96789 14.897C7.76778 14.7134 7.663 14.4798 7.65354 14.196C7.64408 13.9123 7.73977 13.6786 7.9406 13.495L13.2889 8.58771H1.0915C0.782239 8.58771 0.522828 8.49157 0.313262 8.29928C0.103696 8.107 -0.000723884 7.86931 3.77678e-06 7.58623C3.77678e-06 7.30247 0.104787 7.06445 0.314353 6.87217C0.52392 6.67988 0.782967 6.58408 1.0915 6.58474H13.2889L7.9406 1.67748C7.7405 1.49388 7.64481 1.2602 7.65354 0.976445C7.66227 0.692692 7.76706 0.459012 7.96789 0.275407C8.168 0.0918021 8.42268 0 8.73193 0C9.04119 0 9.29587 0.0918021 9.49598 0.275407L16.6998 6.88519C16.809 6.96865 16.8865 7.07313 16.9323 7.19865C16.9782 7.32417 17.0007 7.45336 17 7.58623C17 7.71976 16.9774 7.84494 16.9323 7.96178C16.8872 8.07862 16.8097 8.18711 16.6998 8.28726L9.49598 14.897C9.29587 15.0806 9.04119 15.1725 8.73193 15.1725C8.42268 15.1725 8.168 15.0806 7.96789 14.897Z" fill="#4F44E0"/>
</svg>
