<svg width="129" height="26" viewBox="0 0 129 26" fill="none" xmlns="http://www.w3.org/2000/svg">
<path d="M25.7622 19.25V8.60654H29.8844V18.1687C29.8844 18.8332 30.0477 19.4414 30.3744 19.9933C30.701 20.5339 31.1346 20.9675 31.6752 21.2942C32.2271 21.6095 32.8297 21.7672 33.4829 21.7672C34.1587 21.7672 34.7669 21.6095 35.3075 21.2942C35.8481 20.9675 36.2817 20.5339 36.6084 19.9933C36.935 19.4414 37.0983 18.8332 37.0983 18.1687V8.60654H41.2205L41.2374 25.5008H37.1152L37.0983 23.9635C36.5126 24.5717 35.82 25.056 35.0203 25.4164C34.2206 25.7655 33.3646 25.9401 32.4524 25.9401C31.2247 25.9401 30.104 25.6416 29.0904 25.0447C28.0767 24.4365 27.2658 23.6312 26.6576 22.6288C26.0607 21.6152 25.7622 20.4889 25.7622 19.25Z" fill="#4F44E0"/>
<path d="M51.2787 25.4569C49.7244 25.4569 48.3053 25.057 47.0213 24.2574C45.7486 23.4577 44.7293 22.3821 43.9635 21.0305C43.2088 19.679 42.8315 18.1867 42.8315 16.5536C42.8315 15.3259 43.0512 14.1771 43.4904 13.1071C43.9297 12.0259 44.5322 11.0798 45.2981 10.2689C46.0753 9.44668 46.9763 8.8047 48.0012 8.34292C49.0261 7.88114 50.1186 7.65025 51.2787 7.65025C52.5965 7.65025 53.8016 7.93182 54.8941 8.49497C55.9978 9.04685 56.9327 9.80709 57.6985 10.7757C58.4644 11.7443 59.0219 12.8481 59.3711 14.087C59.7202 15.3259 59.7991 16.6211 59.6076 17.9727H47.2579C47.4155 18.6034 47.6746 19.1722 48.035 19.679C48.3954 20.1746 48.8515 20.5744 49.4034 20.8785C49.9553 21.1713 50.5804 21.3234 51.2787 21.3346C51.9995 21.3459 52.6528 21.177 53.2384 20.8278C53.8354 20.4674 54.3309 19.9831 54.7251 19.3749L58.9318 20.3548C58.2448 21.8527 57.2199 23.0804 55.8571 24.0377C54.4942 24.9838 52.9681 25.4569 51.2787 25.4569ZM47.1227 14.881H55.4347C55.3108 14.2052 55.0461 13.5971 54.6407 13.0564C54.2465 12.5046 53.7565 12.0653 53.1709 11.7387C52.5852 11.4121 51.9545 11.2487 51.2787 11.2487C50.6029 11.2487 49.9778 11.4121 49.4034 11.7387C48.829 12.054 48.3391 12.4877 47.9336 13.0395C47.5394 13.5802 47.2691 14.194 47.1227 14.881Z" fill="#4F44E0"/>
<path d="M72.8485 19.9324L76.5652 21.9428C75.7881 23.0015 74.8139 23.8519 73.6425 24.4939C72.4712 25.1359 71.1928 25.4569 69.8075 25.4569C68.2532 25.4569 66.8341 25.057 65.5501 24.2574C64.2774 23.4577 63.2581 22.3877 62.4923 21.0474C61.7377 19.6959 61.3604 18.2036 61.3604 16.5704C61.3604 15.3315 61.58 14.1771 62.0192 13.1071C62.4585 12.0259 63.061 11.0798 63.8269 10.2689C64.6041 9.44668 65.5051 8.8047 66.53 8.34292C67.5549 7.88114 68.6474 7.65025 69.8075 7.65025C71.1928 7.65025 72.4712 7.97124 73.6425 8.61323C74.8139 9.25521 75.7881 10.1168 76.5652 11.1981L72.8485 13.1916C72.4543 12.7411 71.9869 12.3919 71.4463 12.1441C70.9169 11.8964 70.3706 11.7725 69.8075 11.7725C68.9966 11.7725 68.2645 11.9977 67.6112 12.4482C66.958 12.8875 66.4399 13.4732 66.057 14.2052C65.674 14.9261 65.4826 15.7145 65.4826 16.5704C65.4826 17.4152 65.674 18.2036 66.057 18.9357C66.4399 19.6565 66.958 20.2365 67.6112 20.6758C68.2645 21.115 68.9966 21.3346 69.8075 21.3346C70.3932 21.3346 70.9507 21.2108 71.48 20.963C72.0094 20.7039 72.4655 20.3604 72.8485 19.9324Z" fill="#4F44E0"/>
<path d="M86.6058 25.4569C85.0516 25.4569 83.6324 25.057 82.3485 24.2574C81.0758 23.4577 80.0565 22.3877 79.2906 21.0474C78.536 19.6959 78.1587 18.2036 78.1587 16.5704C78.1587 15.3315 78.3783 14.1771 78.8176 13.1071C79.2568 12.0259 79.8594 11.0798 80.6253 10.2689C81.4024 9.44668 82.3034 8.8047 83.3283 8.34292C84.3533 7.88114 85.4458 7.65025 86.6058 7.65025C88.1601 7.65025 89.5736 8.05009 90.8463 8.84975C92.1303 9.64941 93.1496 10.725 93.9042 12.0766C94.6701 13.4281 95.053 14.9261 95.053 16.5704C95.053 17.7981 94.8334 18.9469 94.3941 20.0169C93.9549 21.0869 93.3467 22.0329 92.5695 22.8551C91.8037 23.6661 90.9083 24.3024 89.8833 24.7642C88.8697 25.226 87.7772 25.4569 86.6058 25.4569ZM86.6058 21.3346C87.428 21.3346 88.1658 21.115 88.819 20.6758C89.4722 20.2365 89.9847 19.6565 90.3564 18.9357C90.7393 18.2148 90.9308 17.4264 90.9308 16.5704C90.9308 15.6919 90.7337 14.8923 90.3395 14.1715C89.9565 13.4394 89.4328 12.8593 88.7683 12.4313C88.1151 11.9921 87.3942 11.7725 86.6058 11.7725C85.7949 11.7725 85.0628 11.9921 84.4096 12.4313C83.7563 12.8706 83.2382 13.4563 82.8553 14.1884C82.4724 14.9204 82.2809 15.7145 82.2809 16.5704C82.2809 17.4602 82.478 18.2655 82.8722 18.9863C83.2664 19.7072 83.7901 20.2816 84.4434 20.7096C85.1079 21.1263 85.8287 21.3346 86.6058 21.3346Z" fill="#4F44E0"/>
<path d="M96.6465 25.3364V8.44206H100.769V9.94565C101.343 9.33746 102.03 8.85878 102.83 8.50963C103.629 8.14922 104.491 7.96902 105.415 7.96902C106.586 7.96902 107.662 8.24496 108.641 8.79684C109.633 9.34872 110.421 10.0864 111.007 11.01C111.604 10.0864 112.392 9.34872 113.372 8.79684C114.352 8.24496 115.427 7.96902 116.599 7.96902C117.838 7.96902 118.958 8.27311 119.961 8.88131C120.974 9.47824 121.78 10.2835 122.377 11.2972C122.985 12.2996 123.289 13.4202 123.289 14.6592V25.3364H119.167V15.7573C119.167 15.104 119.003 14.5071 118.677 13.9665C118.361 13.4146 117.933 12.9754 117.393 12.6487C116.863 12.3109 116.266 12.1419 115.602 12.1419C114.937 12.1419 114.335 12.3052 113.794 12.6318C113.265 12.9472 112.837 13.3752 112.51 13.9158C112.184 14.4564 112.02 15.0703 112.02 15.7573V25.3364H107.898V15.7573C107.898 15.0703 107.74 14.4564 107.425 13.9158C107.11 13.3752 106.682 12.9472 106.141 12.6318C105.6 12.3052 104.998 12.1419 104.333 12.1419C103.68 12.1419 103.083 12.3109 102.543 12.6487C102.002 12.9754 101.568 13.4146 101.242 13.9665C100.926 14.5071 100.769 15.104 100.769 15.7573V25.3364H96.6465Z" fill="#4F44E0"/>
<path d="M8.98777 7.97411C10.6322 7.97411 12.1301 8.37395 13.4817 9.17361C14.8332 9.97327 15.9088 11.0489 16.7085 12.4004C17.5081 13.7407 17.908 15.2274 17.908 16.8605C17.908 18.0882 17.6771 19.2426 17.2153 20.3239C16.7535 21.4051 16.1115 22.3568 15.2894 23.179C14.4784 23.9899 13.5323 24.6263 12.4511 25.088C11.3811 25.5498 10.2267 25.7807 8.98777 25.7807C7.92906 25.7807 6.98861 25.5442 6.16642 25.0712C5.3555 24.5869 4.67409 23.9618 4.12221 23.1959V25.3415H0V0H4.12221V10.5589C4.67409 9.79307 5.3555 9.17361 6.16642 8.70057C6.98861 8.21627 7.92906 7.97411 8.98777 7.97411ZM8.93709 21.7937C9.8156 21.7937 10.6096 21.574 11.3192 21.1348C12.04 20.6843 12.6144 20.0873 13.0424 19.344C13.4704 18.6006 13.6844 17.7728 13.6844 16.8605C13.6844 15.9595 13.4704 15.1373 13.0424 14.394C12.6144 13.6393 12.04 13.0424 11.3192 12.6032C10.5984 12.1639 9.80433 11.9443 8.93709 11.9443C8.08111 11.9443 7.31524 12.1695 6.63946 12.62C5.96369 13.0593 5.43434 13.6562 5.0514 14.4108C4.66846 15.1542 4.47699 15.9708 4.47699 16.8605C4.47699 17.7728 4.66846 18.6063 5.0514 19.3609C5.43434 20.1042 5.96369 20.6955 6.63946 21.1348C7.31524 21.574 8.08111 21.7937 8.93709 21.7937Z" fill="#4F44E0"/>
<path d="M19.4443 25.5008V0H23.5882V25.5008H19.4443Z" fill="#4F44E0"/>
<path d="M126.996 25.5511C126.445 25.5511 125.973 25.3602 125.58 24.9785C125.199 24.5861 125.008 24.109 125.008 23.547C125.008 23.0062 125.199 22.5396 125.58 22.1472C125.973 21.7549 126.445 21.5587 126.996 21.5587C127.547 21.5587 128.019 21.7549 128.412 22.1472C128.804 22.5396 129 23.0062 129 23.547C129 24.109 128.804 24.5861 128.412 24.9785C128.019 25.3602 127.547 25.5511 126.996 25.5511Z" fill="#4F44E0"/>
</svg>
