<svg width="700" height="219" viewBox="0 0 700 219" fill="none" xmlns="http://www.w3.org/2000/svg">
<g opacity="0.3">
<path d="M-89.1868 353.616C9.69202 274.839 99.842 152.487 170.076 57.1535C208.682 4.74804 241.276 -39.494 266.011 -63.8593C361.808 -158.231 456.281 -72.1436 560.761 23.0622C600.518 59.2898 641.725 96.8389 684.988 126.246C712.304 144.813 740.452 160.118 769.579 169.815L769.742 170.445C740.455 160.731 712.153 145.352 684.689 126.683C641.386 97.2511 600.169 59.6919 560.403 23.4558C456.117 -71.572 361.821 -157.499 266.385 -63.4809C241.677 -39.141 209.097 5.08308 170.503 57.4689C100.208 152.885 9.96989 275.36 -89.0409 354.18L-89.1863 353.618L-89.1868 353.616Z" fill="white"/>
<path d="M-92.1691 342.082C7.93359 267.035 97.0411 155.002 167.983 65.8004C211.034 11.6678 247.4 -34.0573 275.493 -58.0256C369.943 -147.603 462.146 -66.4622 563.911 23.0943C599.749 54.6345 636.778 87.2189 675.5 113.743C705.005 133.954 735.499 150.63 767.209 160.656L767.371 161.283C735.5 151.244 704.852 134.492 675.202 114.181C636.454 87.6399 599.415 55.0436 563.562 23.4925C461.985 -65.9004 369.951 -146.891 275.851 -57.6305L275.841 -57.6207C247.784 -33.6854 211.435 12.0208 168.4 66.1312C97.3981 155.408 8.20417 267.549 -92.025 342.639L-92.1691 342.082Z" fill="white"/>
<path d="M-95.2168 330.294C6.14552 258.5 94.4203 155.865 165.878 72.7794C213.348 17.5838 253.402 -28.986 284.968 -52.183C378.042 -136.993 467.972 -60.769 567.004 23.1738C598.588 49.9449 631.1 77.5019 664.925 100.858C696.948 122.968 730.155 141.317 764.886 151.674L765.046 152.292C730.153 141.927 696.792 123.507 664.623 101.295C630.771 77.9221 598.252 50.3579 566.659 23.5783C467.81 -60.2105 378.048 -136.293 285.315 -51.7814L285.294 -51.7651C253.779 -28.6085 213.737 17.9454 166.282 73.1243C94.7646 156.278 6.41049 259.006 -95.0749 330.843L-95.2172 330.293L-95.2168 330.294Z" fill="white"/>
<path d="M-98.3248 318.274C4.15028 249.416 91.6651 155.542 163.433 78.5518C215.47 22.7283 259.233 -24.2186 294.45 -46.3421C386.112 -126.386 473.751 -55.0512 570.027 23.3129C596.853 45.1496 624.353 67.5316 652.788 87.3264C687.788 111.693 724.226 132.127 762.599 142.827L762.759 143.445C724.22 132.741 687.63 112.231 652.484 87.7621C624.028 67.9526 596.523 45.5647 569.691 23.7242C473.592 -54.497 386.114 -125.699 294.782 -45.9277L294.749 -45.9027C259.588 -23.8209 215.841 23.1109 163.821 78.9156C91.9971 155.964 4.40715 249.919 -98.1842 318.818L-98.3253 318.272L-98.3248 318.274Z" fill="white"/>
<path d="M-101.482 306.062C1.76412 239.977 88.4585 154.392 160.289 83.4757C217.204 27.2826 264.793 -19.7035 303.928 -40.5037C394.138 -115.793 479.477 -49.3175 572.967 23.508C631.212 68.8794 692.634 116.701 760.361 134.171L760.526 134.811C692.614 117.361 631.035 69.4129 572.64 23.9261C479.318 -48.7672 394.136 -115.122 304.246 -40.0802L304.226 -40.0643L304.199 -40.0501C265.132 -19.2947 217.558 27.6752 160.659 83.8533C88.7787 154.824 2.01331 240.478 -101.342 306.604L-101.482 306.062Z" fill="white"/>
<path d="M-104.682 293.686C-1.23684 230.362 84.4392 152.734 156.012 87.875C218.348 31.3898 269.993 -15.4111 313.409 -34.6645C402.12 -105.205 485.141 -43.5553 575.814 23.7759C632.516 65.8815 692.221 110.183 758.174 125.715L758.337 126.345C692.204 110.833 632.344 66.4153 575.499 24.2036C484.987 -43.008 402.115 -104.548 313.715 -34.2268L313.687 -34.2053L313.657 -34.1919C270.313 -14.9825 218.684 31.8012 156.371 88.2679C84.7445 153.171 -0.997008 230.862 -104.543 294.225L-104.682 293.686Z" fill="white"/>
<path d="M-107.92 281.163C-5.15283 220.762 79.1305 150.864 150.026 92.0619C218.616 35.174 274.685 -11.3296 322.887 -28.8244C410.044 -94.6347 490.731 -37.7738 578.553 24.1173C633.764 63.0265 691.806 103.901 756.043 117.471L756.203 118.091C691.791 104.539 633.598 63.5607 578.246 24.5518C490.581 -37.2295 410.038 -93.9915 323.177 -28.3773L323.146 -28.3549L323.107 -28.341C274.98 -10.8876 218.931 35.6001 150.363 92.4695C79.4223 151.312 -4.92239 221.26 -107.782 281.698L-107.92 281.163Z" fill="white"/>
<path d="M-111.191 268.514C-10.3989 211.422 71.8648 149.135 141.493 96.4107C217.63 38.7568 278.673 -7.46496 332.373 -22.9844C417.911 -84.075 496.24 -31.9588 581.162 24.5484C634.946 60.3338 691.384 97.8689 753.971 109.459L754.128 110.065C691.372 98.4955 634.788 60.8658 580.868 24.9904C496.091 -31.4184 417.898 -83.4446 332.642 -22.5248L332.605 -22.4989L332.561 -22.4875C278.949 -7.00708 217.929 39.1996 141.813 96.8371C72.1438 149.591 -10.1744 211.919 -111.053 269.046L-111.191 268.512L-111.191 268.514Z" fill="white"/>
<path d="M-114.49 255.754C-17.5841 202.665 61.6341 147.998 129.125 101.419C214.838 42.2664 281.655 -3.84595 341.851 -17.1443C425.697 -73.5343 501.639 -26.1153 583.618 25.0734C636.044 57.8078 690.942 92.0835 751.956 101.664L752.112 102.267C690.934 92.7071 635.895 58.341 583.337 25.523C501.497 -25.5783 425.682 -72.9179 342.106 -16.6756L342.064 -16.6485L342.015 -16.6358C281.911 -3.37558 215.116 42.7201 129.427 101.858C61.8992 148.462 -17.3652 203.162 -114.353 256.285L-114.49 255.754Z" fill="white"/>
<path d="M-117.813 242.9C-27.6399 194.963 46.8261 148.127 110.823 107.875C209.419 45.8607 283.185 -0.53661 351.335 -11.3022C433.396 -63.0073 506.919 -20.2338 585.893 25.7124C637.037 55.4682 690.476 86.5379 749.998 94.0842L750.151 94.6772C690.472 87.1534 636.898 56.0027 585.626 26.1729C506.781 -19.6998 433.378 -62.4045 351.571 -10.8248L351.524 -10.7963L351.471 -10.7882C283.413 -0.0553454 209.673 46.3243 111.105 108.322C47.0729 148.598 -27.4384 195.462 -117.677 243.428L-117.813 242.9Z" fill="white"/>
<path d="M-121.158 229.964C-42.0674 189.034 24.7067 150.627 82.9065 117.152C200.084 49.7535 282.515 2.34085 360.813 -5.46046C440.982 -52.5055 512.044 -14.3124 587.943 26.4837C637.902 53.336 689.968 81.2947 748.104 86.767L748.254 87.3464C689.968 81.8965 637.773 53.8678 587.69 26.9496C511.911 -13.7814 440.965 -51.9137 361.031 -4.97484L360.984 -4.94638L360.924 -4.93995C282.723 2.83079 200.319 50.2292 83.1702 117.612C24.9425 151.104 -41.871 189.534 -121.022 230.49L-121.158 229.964Z" fill="white"/>
<path d="M-124.522 216.955C-63.2894 186.018 -9.54578 157.482 38.5075 131.965C184.848 54.2567 278.461 4.54933 370.296 0.382191C448.44 -42.0268 516.983 -8.34088 589.722 27.4067C638.61 51.433 689.405 76.3688 746.282 79.718L746.43 80.2905C689.41 76.9638 638.494 51.9685 589.489 27.8839C516.859 -7.81042 448.42 -41.4452 370.493 0.878602L370.44 0.906707L370.381 0.909292C278.641 5.05183 185.062 54.7432 38.7556 132.434C-9.32778 157.968 -63.1078 186.524 -124.386 217.481L-124.521 216.956L-124.522 216.955Z" fill="white"/>
<path d="M-127.901 203.884C-95.2697 187.745 -64.7702 172.502 -36.1441 158.195C160.719 59.803 269.063 5.65236 379.776 6.22523C455.733 -31.5779 521.688 -2.31432 591.165 28.5128C639.12 49.791 688.765 71.7907 744.533 72.9543L744.678 73.5167C688.777 72.3768 639.016 50.3273 590.95 28.9997C521.573 -1.78264 455.715 -31.004 379.958 6.73113L379.901 6.75839L379.838 6.75849C269.232 6.16517 160.923 60.2976 -35.9045 158.673C-64.5501 172.989 -95.0716 188.245 -127.763 204.412L-127.899 203.885L-127.901 203.884Z" fill="white"/>
<path d="M-131.294 190.763C135.444 61.3226 257.636 5.17218 389.26 12.0712C462.82 -21.1626 526.095 3.78188 592.183 29.8372C639.379 48.4444 688.019 67.5953 742.862 66.4858L743.005 67.0397C688.038 68.1724 639.29 48.9805 591.99 30.3312C525.991 4.31094 462.802 -20.6015 389.42 12.5807L389.362 12.6067L389.297 12.6034C257.761 5.69087 135.6 61.8351 -131.159 191.286L-131.294 190.761L-131.294 190.763Z" fill="white"/>
<path d="M-134.699 177.592C-7.78423 117.025 86.2815 75.6308 164.104 49.8539C255.785 19.4878 324.944 10.7831 398.742 17.9138C469.643 -10.7989 530.116 9.95825 592.653 31.4249C639.308 47.4387 687.121 63.8255 741.268 60.3291L741.41 60.8761C687.146 64.399 639.233 47.9765 592.481 31.9281C530.021 10.4885 469.624 -10.2428 398.878 18.4316L398.817 18.4563L398.753 18.4492C325.01 11.3155 255.902 20.0087 164.271 50.3582C86.4482 76.1352 -7.62564 117.533 -134.564 178.116L-134.699 177.592Z" fill="white"/>
<path d="M-138.114 164.384C-6.19155 102.343 90.1844 63.469 169.587 41.5032C262.431 15.8191 332.079 13.2434 408.223 23.7602C476.125 -0.491981 533.624 16.2379 592.412 33.3434C638.808 46.843 686.015 60.557 739.764 54.5045L739.904 55.0447C686.05 61.1207 638.751 47.3798 592.264 33.8528C533.542 16.7667 476.105 0.0551032 408.34 24.2811L408.278 24.3025L408.215 24.2936C332.115 13.7777 262.518 16.344 169.73 42.0136C90.3408 63.9759 -6.03636 102.852 -137.978 164.905L-138.113 164.382L-138.114 164.384Z" fill="white"/>
<path d="M-141.539 151.139C-4.56543 87.545 94.1057 51.2388 175.068 33.1529C269.074 12.1512 339.208 15.7049 417.703 29.6071C482.142 9.73391 536.436 22.6453 591.211 35.6732C637.737 46.7392 684.612 57.8855 738.349 49.0392L738.488 49.5744C684.654 58.4419 637.696 47.2754 591.087 36.1892C536.366 23.1744 482.124 10.2733 417.797 30.132L417.736 30.1478L417.672 30.1389C339.215 16.2395 269.131 12.6802 175.183 33.6687C94.2401 51.7515 -4.42213 88.0572 -141.405 151.659L-141.539 151.137L-141.539 151.139Z" fill="white"/>
<path d="M-144.971 137.866C-2.91138 72.6457 98.0472 38.9474 180.55 24.8006C275.718 8.48296 346.338 18.1661 427.185 35.4536C487.539 19.8466 538.28 29.2175 588.692 38.5286C635.881 47.2445 682.79 55.8862 737.022 43.9084L737.16 44.4401C682.843 56.4361 635.858 47.7815 588.595 39.0521C538.221 29.7475 487.521 20.3843 427.256 35.9825L427.195 35.9983L427.134 35.9852C346.323 18.703 275.748 9.01731 180.639 25.3268C98.1604 39.4691 -2.7808 73.1648 -144.838 138.389L-144.973 137.867L-144.971 137.866Z" fill="white"/>
<path d="M-148.41 124.565C-1.22898 57.6449 101.999 26.6025 186.032 16.4537C282.369 4.81844 353.472 20.6302 436.667 41.3017C492.056 29.7952 538.725 36.0011 584.301 42.0601C632.952 48.5293 680.36 54.825 735.804 39.1954L735.94 39.7237C680.425 55.3702 632.949 49.0647 584.231 42.5875C538.681 36.5309 492.039 30.329 436.713 41.8334L436.653 41.8454L436.595 41.8314C353.427 21.1656 282.358 5.35227 186.095 16.9793C102.097 27.1244 -1.10394 58.1636 -148.277 125.087L-148.412 124.564L-148.41 124.565Z" fill="white"/>
<path d="M-151.855 111.242C165.771 -31.9743 279.689 0.173322 433.939 43.7071L446.147 47.1485C495.308 39.4891 537.088 43.0456 577.156 46.4542C628.505 50.8246 677.04 54.9512 734.688 34.8781L734.825 35.4082C677.116 55.4916 628.524 51.3599 577.113 46.9836C537.062 43.5744 495.295 40.0217 446.172 47.6821L446.115 47.6915L446.06 47.6766C441.429 46.3743 437.591 45.2913 433.796 44.2207C279.641 0.711274 165.798 -31.4157 -151.72 111.763L-151.855 111.24L-151.855 111.242Z" fill="white"/>
<path d="M-155.305 97.8977C157.912 -42.3203 274.242 -5.04149 422.593 42.5028C433.383 45.9607 444.344 49.4743 455.626 52.9955C496.705 48.7763 532.262 50.3892 565.806 51.9101C621.918 54.4547 672.398 56.7205 733.677 30.9744L733.814 31.5062C672.486 57.2561 621.952 54.9877 565.782 52.4419C532.246 50.9209 496.696 49.3097 455.627 53.5318L455.572 53.5369L455.519 53.5199C444.302 50.0182 433.28 46.4859 422.43 43.0089C274.179 -4.50299 157.927 -41.7569 -155.17 98.421L-155.305 97.8977Z" fill="white"/>
<path d="M-158.76 84.5368C152.573 -53.9887 270.742 -11.1927 415.254 41.1431C431.454 47.0104 447.987 52.9968 465.109 58.8452C495.4 57.3772 522.469 57.9441 547.818 58.4732C612.407 59.8229 665.836 60.924 732.793 27.5432L732.932 28.0817C665.934 61.4586 612.456 60.3558 547.807 59.0053C522.448 58.475 495.367 57.9095 465.085 59.3788L465.035 59.3809L464.987 59.3642C447.78 53.4888 431.262 47.5061 415.075 41.6425C270.661 -10.6571 152.577 -53.4205 -158.624 85.0601L-158.76 84.5368Z" fill="white"/>
<path d="M-162.217 71.1657C149.023 -66.6036 268.721 -18.0402 410.718 39.5826C431.323 47.9453 452.401 56.4975 474.587 64.6942C490.309 64.8054 505.096 65.1419 519.182 65.4641C599.277 67.2923 656.668 68.5726 732.024 24.5737L732.165 25.1208C656.778 69.108 599.334 67.8268 519.171 65.9962C505.067 65.675 490.26 65.3365 474.54 65.2267L474.495 65.2257L474.451 65.2099C452.225 56.9998 431.136 48.4431 410.521 40.0758C268.625 -17.5062 149.017 -66.0327 -162.081 71.689L-162.217 71.1657Z" fill="white"/>
<path d="M-165.677 57.7827C146.794 -79.9351 267.842 -25.4221 408.216 37.8223C432.556 48.7883 457.48 60.0166 484.068 70.5445C576.372 76.4283 634.671 78.6066 706.529 37.6727C714.621 33.0628 722.889 27.8998 731.395 22.1408L731.536 22.6879C723.074 28.4138 714.848 33.5479 706.794 38.1354C634.792 79.1517 576.423 76.9663 483.995 71.0729L483.954 71.0706L483.914 71.054C457.282 60.5119 432.349 49.2786 407.997 38.3067C267.73 -24.8892 146.774 -79.3608 -165.542 58.306L-165.677 57.7827Z" fill="white"/>
<path d="M-169.14 44.3896C145.553 -93.8139 267.848 -33.2214 407.225 35.8762C434.79 49.5412 463.023 63.5389 493.551 76.3944C584.801 87.5061 640.649 83.1822 709.859 35.6609C716.724 30.9476 723.722 25.8012 730.898 20.212L731.042 20.7727C723.922 26.3151 716.975 31.4193 710.159 36.0998C640.801 83.7228 584.859 88.0513 493.45 76.9187L493.413 76.9139L493.378 76.8993C462.83 64.0367 434.573 50.0286 406.989 36.3522C267.723 -32.6905 145.523 -93.2352 -169.005 44.9112L-169.14 44.3879L-169.14 44.3896Z" fill="white"/>
<path d="M-172.605 30.9863C145.075 -108.127 268.559 -41.3588 407.388 33.7642C437.796 50.2177 468.944 67.0726 503.03 82.2451C600.891 99.9708 655.458 85.6864 730.538 18.8295L730.69 19.4157C655.576 86.2575 600.927 100.523 502.904 82.7633L502.872 82.7571L502.843 82.7446C468.727 67.5599 437.561 50.6971 407.134 34.2323C268.416 -40.8307 145.035 -107.544 -172.471 31.5079L-172.605 30.9863Z" fill="white"/>
<path d="M-176.073 17.5744C145.194 -122.788 269.827 -49.7727 408.447 31.5036C441.396 50.822 475.141 70.6069 512.513 88.0983C607.95 111.182 659.639 89.6587 730.337 18.0513L730.493 18.6561C659.762 90.2468 607.983 111.744 512.36 88.6073L512.308 88.5898C474.916 71.091 441.15 51.2935 408.18 31.9625C269.673 -49.2488 145.143 -122.201 -175.938 18.096L-176.074 17.5727L-176.073 17.5744Z" fill="white"/>
<path d="M-179.544 4.15234C145.788 -137.735 271.554 -58.4209 410.223 29.1088C445.478 51.3617 481.571 74.1445 521.987 93.9447C614.993 122.226 663.898 94.0604 730.294 17.8848L730.457 18.5134C664.032 94.6676 615.026 122.798 521.815 94.4479L521.776 94.4325C481.32 74.6156 445.209 51.8227 409.938 29.5576C271.386 -57.8973 145.729 -137.145 -179.408 4.67563L-179.543 4.15404L-179.544 4.15234Z" fill="white"/>
<path d="M-183.015 -9.27478C146.77 -152.923 273.654 -67.2637 412.57 26.6004C449.933 51.8464 488.172 77.6834 531.467 99.7989C622.024 133.102 668.247 98.9011 730.42 18.3707L730.589 19.0248C668.39 99.5311 622.057 133.684 531.272 100.292L531.243 100.279C487.913 78.1473 449.657 52.2985 412.274 27.0412C273.476 -66.7447 146.701 -152.329 -182.881 -8.75319L-183.015 -9.27478Z" fill="white"/>
<path d="M-186.489 -22.7104C148.07 -168.314 276.069 -76.275 415.391 23.9861C454.705 52.2784 494.925 81.221 540.946 105.648C629.039 143.791 672.688 104.171 730.721 19.5273L730.897 20.2103C672.839 104.828 629.073 144.386 540.728 106.132L540.709 106.122C494.649 81.6748 454.412 52.7204 415.081 24.4159C275.878 -75.758 147.991 -167.716 -186.354 -22.1888L-186.489 -22.7104Z" fill="white"/>
<path d="M-189.965 -36.1528C149.636 -183.88 278.745 -85.4352 418.6 21.2767C459.731 52.6611 501.795 84.7556 550.42 111.496C636.036 154.289 677.215 109.883 731.202 21.3949L731.387 22.1136C677.375 110.578 636.071 154.902 550.183 111.973L550.174 111.968C501.508 85.2069 459.426 53.0968 418.278 21.6989C278.543 -84.919 149.548 -183.279 -189.83 -35.6312L-189.965 -36.1528Z" fill="white"/>
<path d="M-193.442 -49.602C151.426 -199.599 281.646 -94.7223 422.138 18.4859C464.976 53.0033 508.774 88.2948 559.904 117.351C637.316 161.341 676.284 122.284 721.678 42.4036C725.036 36.4927 728.431 30.3584 731.879 24.0165L732.074 24.7708C728.719 30.9367 725.414 36.908 722.14 42.6685C676.578 122.843 637.448 162.03 559.641 117.814C508.472 88.7352 464.659 53.4314 421.805 18.9002C281.434 -94.209 151.33 -198.994 -193.307 -49.0805L-193.442 -49.602Z" fill="white"/>
</g>
</svg>
