<svg width="32" height="32" viewBox="0 0 32 32" fill="none" xmlns="http://www.w3.org/2000/svg">
<rect width="32" height="32" rx="16" fill="#0E0B3D"/>
<path d="M23.501 7.2002H8.49942C8.15484 7.2002 7.82438 7.33708 7.58073 7.58073C7.33708 7.82438 7.2002 8.15484 7.2002 8.49942V23.501C7.2002 23.8455 7.33708 24.176 7.58073 24.4197C7.82438 24.6633 8.15484 24.8002 8.49942 24.8002H23.501C23.8455 24.8002 24.176 24.6633 24.4197 24.4197C24.6633 24.176 24.8002 23.8455 24.8002 23.501V8.49942C24.8002 8.15484 24.6633 7.82438 24.4197 7.58073C24.176 7.33708 23.8455 7.2002 23.501 7.2002ZM12.446 22.1932H9.79986V13.788H12.446V22.1932ZM11.1211 12.6232C10.8209 12.6215 10.528 12.5309 10.2793 12.3629C10.0305 12.1949 9.83714 11.957 9.72351 11.6792C9.60987 11.4013 9.58107 11.0961 9.64075 10.8019C9.70043 10.5078 9.84592 10.2379 10.0588 10.0263C10.2718 9.81474 10.5426 9.67099 10.8371 9.6132C11.1317 9.55541 11.4367 9.58616 11.7138 9.70158C11.9909 9.81701 12.2276 10.0119 12.394 10.2617C12.5604 10.5115 12.6491 10.805 12.6489 11.1052C12.6517 11.3062 12.614 11.5056 12.5381 11.6917C12.4622 11.8778 12.3496 12.0467 12.2071 12.1884C12.0645 12.33 11.8949 12.4415 11.7083 12.5162C11.5217 12.5909 11.322 12.6273 11.1211 12.6232ZM22.1993 22.2005H19.5544V17.6086C19.5544 16.2544 18.9788 15.8364 18.2356 15.8364C17.451 15.8364 16.681 16.428 16.681 17.6429V22.2005H14.0349V13.7941H16.5795V14.9589H16.6138C16.8692 14.4419 17.7639 13.5582 19.1291 13.5582C20.6055 13.5582 22.2005 14.4345 22.2005 17.0012L22.1993 22.2005Z" fill="white"/>
</svg>
